<?xml version="1.0" encoding="UTF-8" standalone="no"?>
<!-- Created with Inkscape (http://www.inkscape.org/) -->

<svg
   xmlns:dc="http://purl.org/dc/elements/1.1/"
   xmlns:cc="http://creativecommons.org/ns#"
   xmlns:rdf="http://www.w3.org/1999/02/22-rdf-syntax-ns#"
   xmlns:svg="http://www.w3.org/2000/svg"
   xmlns="http://www.w3.org/2000/svg"
   xmlns:sodipodi="http://sodipodi.sourceforge.net/DTD/sodipodi-0.dtd"
   xmlns:inkscape="http://www.inkscape.org/namespaces/inkscape"
   width="1417.3228"
   height="1062.9921"
   id="svg2"
   version="1.1"
   inkscape:version="0.48.4 r9939"
   sodipodi:docname="gopro-mount.pdf">
  <defs
     id="defs4" />
  <sodipodi:namedview
     id="base"
     pagecolor="#ffffff"
     bordercolor="#666666"
     borderopacity="1.0"
     inkscape:pageopacity="0.0"
     inkscape:pageshadow="2"
     inkscape:zoom="2.8"
     inkscape:cx="455.54575"
     inkscape:cy="975.0733"
     inkscape:document-units="mm"
     inkscape:current-layer="layer1"
     showgrid="true"
     units="mm"
     inkscape:snap-page="true"
     inkscape:snap-center="false"
     inkscape:object-nodes="true"
     inkscape:snap-bbox="false"
     inkscape:window-width="1024"
     inkscape:window-height="749"
     inkscape:window-x="0"
     inkscape:window-y="0"
     inkscape:window-maximized="1">
    <inkscape:grid
       type="xygrid"
       id="grid2985"
       units="mm"
       empspacing="1"
       visible="true"
       enabled="true"
       snapvisiblegridlinesonly="true"
       spacingx="1mm"
       spacingy="1mm"
       dotted="true"
       color="#0000eb"
       opacity="0.1254902" />
  </sodipodi:namedview>
  <metadata
     id="metadata7">
    <rdf:RDF>
      <cc:Work
         rdf:about="">
        <dc:format>image/svg+xml</dc:format>
        <dc:type
           rdf:resource="http://purl.org/dc/dcmitype/StillImage" />
        <dc:title></dc:title>
      </cc:Work>
    </rdf:RDF>
  </metadata>
  <g
     inkscape:label="Layer 1"
     inkscape:groupmode="layer"
     id="layer1"
     transform="translate(0,10.629915)">
    <path
       style="fill:none;stroke:#000000;stroke-width:0.03543307;stroke-linecap:butt;stroke-linejoin:miter;stroke-miterlimit:4;stroke-opacity:1;stroke-dasharray:none;stroke-dashoffset:0"
       d="M 138.1875 3.53125 L 138.1875 35.4375 L 67.3125 35.4375 L 67.3125 24.78125 L 63.78125 21.25 L 7.09375 21.25 L 3.5625 24.78125 L 3.5625 35.4375 L 3.5625 109.78125 L 3.5625 120.4375 L 7.09375 123.96875 L 63.78125 123.96875 L 67.3125 120.4375 L 67.3125 109.78125 L 138.1875 109.78125 L 138.1875 116.90625 L 166.53125 116.90625 L 166.53125 109.84375 L 318.90625 109.84375 L 318.90625 116.9375 L 347.25 116.9375 L 347.25 109.84375 L 364.96875 109.84375 L 364.96875 99.21875 C 364.96875 89.40379 372.87254 81.5 382.6875 81.5 L 396.84375 81.5 C 406.65871 81.5 414.5625 89.40379 414.5625 99.21875 L 414.5625 109.84375 L 432.28125 109.84375 L 432.28125 108.40625 L 467.71875 108.40625 L 467.71875 109.84375 L 552.78125 109.84375 L 552.78125 116.9375 L 581.125 116.9375 L 581.125 109.84375 L 733.46875 109.84375 L 733.46875 116.90625 L 761.8125 116.90625 L 761.8125 109.78125 L 832.6875 109.78125 L 832.6875 120.4375 L 836.21875 123.96875 L 892.90625 123.96875 L 896.4375 120.4375 L 896.4375 109.78125 L 896.46875 109.78125 L 896.46875 35.4375 L 896.4375 35.4375 L 896.4375 24.78125 L 892.90625 21.25 L 836.21875 21.25 L 832.6875 24.78125 L 832.6875 35.4375 L 761.8125 35.4375 L 761.8125 3.53125 L 733.46875 3.53125 L 733.46875 35.4375 L 581.125 35.4375 L 581.125 3.53125 L 552.78125 3.53125 L 552.78125 35.4375 L 467.71875 35.4375 L 467.71875 36.84375 L 432.28125 36.84375 L 432.28125 35.4375 L 347.25 35.4375 L 347.25 3.53125 L 318.90625 3.53125 L 318.90625 35.4375 L 166.53125 35.4375 L 166.53125 3.53125 L 138.1875 3.53125 z M 17.96875 31.875 L 52.90625 31.875 L 52.90625 38.96875 L 17.96875 38.96875 L 17.96875 31.875 z M 847.0625 31.875 L 882.03125 31.875 L 882.03125 38.96875 L 847.0625 38.96875 L 847.0625 31.875 z M 17.71875 106.28125 L 52.6875 106.28125 L 52.6875 113.375 L 17.71875 113.375 L 17.71875 106.28125 z M 846.84375 106.28125 L 881.8125 106.28125 L 881.8125 113.375 L 846.84375 113.375 L 846.84375 106.28125 z "
       transform="translate(0,-10.629915)"
       id="rect2997" />
    <path
       sodipodi:type="arc"
       style="fill:none;stroke:#000000;stroke-width:0.02362205;stroke-linecap:butt;stroke-linejoin:miter;stroke-miterlimit:4;stroke-opacity:1;stroke-dasharray:none;stroke-dashoffset:0"
       id="path3847"
       sodipodi:cx="407.48032"
       sodipodi:cy="99.21254"
       sodipodi:rx="3.5433071"
       sodipodi:ry="3.5433071"
       d="m 411.02362,99.21254 a 3.5433071,3.5433071 0 1 1 -7.08661,0 3.5433071,3.5433071 0 1 1 7.08661,0 z"
       transform="matrix(1.5000002,0,0,1.4999997,-368.50698,-86.810525)" />
    <path
       transform="matrix(1.5000002,0,0,1.4999997,46.05999,-86.810526)"
       d="m 411.02362,99.21254 a 3.5433071,3.5433071 0 1 1 -7.08661,0 3.5433071,3.5433071 0 1 1 7.08661,0 z"
       sodipodi:ry="3.5433071"
       sodipodi:rx="3.5433071"
       sodipodi:cy="99.21254"
       sodipodi:cx="407.48032"
       id="path3851"
       style="fill:none;stroke:#000000;stroke-width:0.02362205;stroke-linecap:butt;stroke-linejoin:miter;stroke-miterlimit:4;stroke-opacity:1;stroke-dasharray:none;stroke-dashoffset:0"
       sodipodi:type="arc" />
    <path
       sodipodi:type="arc"
       style="fill:none;stroke:#000000;stroke-width:0.03543307;stroke-linecap:butt;stroke-linejoin:miter;stroke-miterlimit:4;stroke-opacity:1;stroke-dasharray:none;stroke-dashoffset:0"
       id="path3859"
       sodipodi:cx="848.62207"
       sodipodi:cy="97.440887"
       sodipodi:rx="1.7716535"
       sodipodi:ry="1.7716535"
       d="m 850.39372,97.440887 a 1.7716535,1.7716535 0 1 1 -3.5433,0 1.7716535,1.7716535 0 1 1 3.5433,0 z"
       transform="translate(-166.53839,-35.432633)" />
    <path
       transform="translate(-216.53839,-35.432633)"
       d="m 850.39372,97.440887 a 1.7716535,1.7716535 0 1 1 -3.5433,0 1.7716535,1.7716535 0 1 1 3.5433,0 z"
       sodipodi:ry="1.7716535"
       sodipodi:rx="1.7716535"
       sodipodi:cy="97.440887"
       sodipodi:cx="848.62207"
       id="path3863"
       style="fill:none;stroke:#000000;stroke-width:0.03543307;stroke-linecap:butt;stroke-linejoin:miter;stroke-miterlimit:4;stroke-opacity:1;stroke-dasharray:none;stroke-dashoffset:0"
       sodipodi:type="arc" />
  </g>
</svg>
