<?xml version="1.0" encoding="UTF-8" standalone="no"?>
<!-- Created with Inkscape (http://www.inkscape.org/) -->

<svg
   xmlns:dc="http://purl.org/dc/elements/1.1/"
   xmlns:cc="http://creativecommons.org/ns#"
   xmlns:rdf="http://www.w3.org/1999/02/22-rdf-syntax-ns#"
   xmlns:svg="http://www.w3.org/2000/svg"
   xmlns="http://www.w3.org/2000/svg"
   xmlns:sodipodi="http://sodipodi.sourceforge.net/DTD/sodipodi-0.dtd"
   xmlns:inkscape="http://www.inkscape.org/namespaces/inkscape"
   width="1417.3228"
   height="1062.9921"
   id="svg4116"
   version="1.1"
   inkscape:version="0.48.4 r9939"
   sodipodi:docname="highlander.svg">
  <defs
     id="defs4118" />
  <sodipodi:namedview
     id="base"
     pagecolor="#ffffff"
     bordercolor="#666666"
     borderopacity="1.0"
     inkscape:pageopacity="0.0"
     inkscape:pageshadow="2"
     inkscape:zoom="1.0773002"
     inkscape:cx="274.35446"
     inkscape:cy="903.5121"
     inkscape:document-units="mm"
     inkscape:current-layer="layer3"
     showgrid="true"
     units="mm"
     inkscape:window-width="1024"
     inkscape:window-height="749"
     inkscape:window-x="0"
     inkscape:window-y="0"
     inkscape:window-maximized="1"
     inkscape:snap-nodes="true"
     inkscape:snap-bbox="true">
    <inkscape:grid
       type="xygrid"
       id="grid2982"
       units="mm"
       empspacing="5"
       visible="true"
       enabled="true"
       snapvisiblegridlinesonly="true"
       spacingy="1mm"
       spacingx="1mm"
       dotted="true" />
  </sodipodi:namedview>
  <metadata
     id="metadata4121">
    <rdf:RDF>
      <cc:Work
         rdf:about="">
        <dc:format>image/svg+xml</dc:format>
        <dc:type
           rdf:resource="http://purl.org/dc/dcmitype/StillImage" />
        <dc:title></dc:title>
      </cc:Work>
    </rdf:RDF>
  </metadata>
  <g
     inkscape:label="front support"
     inkscape:groupmode="layer"
     id="layer1"
     transform="translate(0,10.629915)"
     style="display:inline"
     sodipodi:insensitive="true">
    <g
       id="g3888" />
    <path
       style="fill:none;stroke:#000000;stroke-width:0.03543307;stroke-linecap:butt;stroke-linejoin:miter;stroke-miterlimit:4;stroke-opacity:1;stroke-dasharray:none;stroke-dashoffset:0"
       d="m 301.1811,24.803095 c -17.71653,0 -31.88976,10.629922 -31.88976,28.346457 0,17.716535 14.17323,28.346457 17.64961,28.299211 3.54297,-0.04815 3.61023,3.590553 3.61023,3.590553 l 39.0406,0.04725 0,-17.78125 c 0,-1.92837 1.54038,-3.46875 3.46875,-3.46875 l 14.3125,0 c 1.92837,0 3.46875,1.54038 3.46875,3.46875 l 0,17.78125 19.5,0 0,-17.71875 c 0,-1.92837 1.54038,-3.46875 3.46875,-3.46875 l 71,0 c 1.92837,0 3.46875,1.54038 3.46875,3.46875 l 0,17.71875 19.5625,0 0,-17.71875 c 0,-1.92837 1.54038,-3.46875 3.46875,-3.46875 l 14.3125,0 c 1.92837,0 3.46875,1.54038 3.46875,3.46875 l 0,17.71875 38.86098,-0.04725 c 0,0 -0.0499,-3.637135 3.49311,-3.590553 3.5935,0.04725 17.76673,-10.582676 17.76673,-28.299211 0,-17.716535 -14.17323,-28.346457 -31.88977,-28.346457 -31.88976,0 -38.91806,17.770117 -60.1779,17.770117 l -95.66929,0 c -21.25984,0 -28.40477,-17.770117 -60.29454,-17.770117 z"
       id="path3967"
       inkscape:connector-curvature="0"
       sodipodi:nodetypes="sssccssssccssssccssssccssssss" />
    <path
       style="fill:none;stroke:#000000;stroke-width:0.03543307;stroke-linecap:butt;stroke-linejoin:miter;stroke-miterlimit:4;stroke-opacity:1;stroke-dasharray:none;stroke-dashoffset:0"
       d="m 535.16437,53.274554 c 0,9.78457 -7.93196,17.71653 -17.71654,17.71653 -9.78457,0 -17.71653,-7.93196 -17.71653,-17.71653 0,-9.78457 7.93196,-17.716533 17.71653,-17.716533 9.78458,0 17.71654,7.931963 17.71654,17.716533 z"
       id="path3965"
       inkscape:connector-curvature="0" />
    <path
       style="fill:none;stroke:#000000;stroke-width:0.03543307;stroke-linecap:butt;stroke-linejoin:miter;stroke-miterlimit:4;stroke-opacity:1;stroke-dasharray:none;stroke-dashoffset:0"
       d="m 318.96014,53.212054 c 0,9.78457 -7.93196,17.71653 -17.71654,17.71653 -9.78457,0 -17.71653,-7.93196 -17.71653,-17.71653 0,-9.784574 7.93196,-17.716537 17.71653,-17.716537 9.78458,0 17.71654,7.931963 17.71654,17.716537 z"
       id="path3892"
       inkscape:connector-curvature="0" />
  </g>
  <g
     inkscape:groupmode="layer"
     id="layer3"
     inkscape:label="back support"
     style="display:inline"
     sodipodi:insensitive="true">
    <path
       inkscape:connector-curvature="0"
       d="m 333.14726,124.07819 c -35.50946,-0.0625 -35.50946,35.37057 -53.226,35.37057 -10.62992,0 -42.51969,14.17323 -42.51969,35.43307 63.7126,-0.0473 341.44685,0 407.48032,0 0,-21.25984 -31.88976,-35.43307 -42.51969,-35.43307 -17.71653,0 -17.71653,-35.43307 -53.07321,-35.37057 -17.71248,-0.005 -31.01897,15.03893 -41.66901,30.08348 -10.65003,15.04456 -18.6436,30.09024 -25.73022,30.09024 l -81.49606,0 c -14.17323,0 -31.88976,-60.23622 -67.24644,-60.17372 z m 233.97909,39.09247 c 0,9.78457 -7.93196,17.71653 -17.71654,17.71653 -9.78457,0 -17.71653,-7.93196 -17.71653,-17.71653 0,-9.78457 7.93196,-17.71654 17.71653,-17.71654 9.78458,0 17.71654,7.93197 17.71654,17.71654 z m -216.20423,-0.0625 c 0,9.78457 -7.93196,17.71653 -17.71654,17.71653 -9.78457,0 -17.71653,-7.93196 -17.71653,-17.71653 0,-9.78458 7.93196,-17.71654 17.71653,-17.71654 9.78458,0 17.71654,7.93196 17.71654,17.71654 z"
       style="fill:none;stroke:#000000;stroke-width:0.03543307;stroke-linecap:butt;stroke-linejoin:miter;stroke-miterlimit:4;stroke-opacity:1;stroke-dasharray:none;stroke-dashoffset:0"
       id="path3942"
       sodipodi:nodetypes="csccscssscssssssssss" />
    <path
       sodipodi:type="arc"
       style="fill:none;stroke:#000000;stroke-width:0.04335102;stroke-linecap:butt;stroke-linejoin:miter;stroke-miterlimit:4;stroke-opacity:1;stroke-dasharray:none;stroke-dashoffset:0"
       id="path3971"
       sodipodi:cx="276.37796"
       sodipodi:cy="170.07867"
       sodipodi:rx="10.629921"
       sodipodi:ry="10.629921"
       d="m 287.00788,170.07867 a 10.629921,10.629921 0 1 1 -21.25984,0 10.629921,10.629921 0 1 1 21.25984,0 z"
       transform="matrix(1,0,0,0.66806509,3.6057993,60.060862)" />
    <path
       transform="matrix(1,0,0,0.66806509,326.04674,60.060862)"
       d="m 287.00788,170.07867 a 10.629921,10.629921 0 1 1 -21.25984,0 10.629921,10.629921 0 1 1 21.25984,0 z"
       sodipodi:ry="10.629921"
       sodipodi:rx="10.629921"
       sodipodi:cy="170.07867"
       sodipodi:cx="276.37796"
       id="path3973"
       style="fill:none;stroke:#000000;stroke-width:0.04335102;stroke-linecap:butt;stroke-linejoin:miter;stroke-miterlimit:4;stroke-opacity:1;stroke-dasharray:none;stroke-dashoffset:0"
       sodipodi:type="arc" />
  </g>
  <g
     inkscape:groupmode="layer"
     id="layer2"
     inkscape:label="highlander"
     style="display:inline"
     sodipodi:insensitive="true">
    <g
       id="g3880"
       transform="translate(-209.00225,-223.22836)">
      <path
         d="m 322.44094,333.0708 c 0,17.61223 -14.27753,31.88976 -31.88976,31.88976 -17.61223,0 -31.88976,-14.27753 -31.88976,-31.88976 0,-17.61223 14.27753,-31.88976 31.88976,-31.88976 17.61223,0 31.88976,14.27753 31.88976,31.88976 z M 258,383.5433 c -0.65247,0 -1.1875,0.50378 -1.1875,1.15625 l 0,8.28125 c 0,0.65247 0.53503,1.1875 1.1875,1.1875 6.10417,0 12.20833,0 18.3125,0 3.34066,0 7.08957,7.27887 7.08957,10.61953 -0.0458,10.13202 0.0488,17.21347 0.0355,27.16172 0,0.65247 0.50378,1.1875 1.15625,1.1875 l 11.8125,0 c 0.65247,0 1.15625,-0.53503 1.15625,-1.1875 0,-10.23958 0.0128,-16.92214 0.0128,-27.16172 0,-3.34066 3.74034,-10.61953 7.081,-10.61953 6.10417,0 12.20833,0 18.3125,0 0.65247,0 1.1875,-0.53503 1.1875,-1.1875 l 0,-8.28125 c 0,-0.65247 -0.53503,-1.15625 -1.1875,-1.15625 z m -20.66093,-77.2715 c 0,21.25985 0.005,41.12654 0.005,41.12654 l -0.005,50.30287 c -0.002,17.0341 28.34341,31.88976 28.34646,46.06299 0.006,43.6972 0.002,87.3944 0.002,131.0916 -0.002,17.7273 -38.96875,-2.82576 -38.96875,21.28125 l 53.125,0 3.5625,-3.5625 c 0,-42.125 0,-64.25 0,-106.375 0,-0.65247 0.53503,-1.1875 1.1875,-1.1875 l 11.8125,0 c 0.65247,0 1.15625,0.53503 1.15625,1.1875 0,42.125 0,64.25 0,106.375 l 3.5625,3.5625 53.15625,0 c -0.74792,-21.87554 -38.98942,-3.55395 -39,-21.28125 0.0198,-43.69719 -0.0319,-87.39442 0.0103,-131.0916 0.0137,-14.17322 28.34646,-29.02889 28.34646,-46.06299 0,0 3.3e-4,-73.71287 3.3e-4,-91.42941 0,-17.71653 -10.62992,-28.34645 -28.34646,-28.34645 -17.71653,0 -31.88976,0 -49.6063,0 -17.71653,0 -28.34646,10.62992 -28.34646,28.34645 z"
         style="fill:none;stroke:#000000;stroke-width:0.03543307;stroke-linecap:butt;stroke-linejoin:miter;stroke-miterlimit:4;stroke-opacity:1;stroke-dashoffset:0"
         transform="translate(0.06250222,-22.110718)"
         id="path3827"
         inkscape:connector-curvature="0" />
      <path
         inkscape:connector-curvature="0"
         id="path3878"
         style="fill:none;stroke:#000000;stroke-width:0.03543307;stroke-linecap:butt;stroke-linejoin:miter;stroke-miterlimit:4;stroke-opacity:1;stroke-dashoffset:0"
         d="m 404.05238,504.07358 c 0,-17.61223 -14.27753,-31.88976 -31.88976,-31.88976 -17.61223,0 -31.88976,14.27753 -31.88976,31.88976 0,17.61223 14.27753,31.88976 31.88976,31.88976 17.61223,0 31.88976,-14.27753 31.88976,-31.88976 z m -64.44094,-50.4725 c -0.65247,0 -1.1875,-0.50378 -1.1875,-1.15625 l 0,-8.28125 c 0,-0.65247 0.53503,-1.1875 1.1875,-1.1875 6.10417,0 12.20833,0 18.3125,0 3.34066,0 7.08957,-7.27887 7.08957,-10.61953 -0.0458,-10.13202 0.0488,-17.21347 0.0355,-27.16172 0,-0.65247 0.50378,-1.1875 1.15625,-1.1875 l 11.8125,0 c 0.65247,0 1.15625,0.53503 1.15625,1.1875 0,10.23958 0.0128,16.92214 0.0128,27.16172 0,3.34066 3.74034,10.61953 7.081,10.61953 6.10417,0 12.20833,0 18.3125,0 0.65247,0 1.1875,0.53503 1.1875,1.1875 l 0,8.28125 c 0,0.65247 -0.53503,1.15625 -1.1875,1.15625 z m -20.66093,77.2715 c 0,-21.25985 0.005,-41.12654 0.005,-41.12654 l -0.005,-50.30287 c -0.002,-17.0341 28.34341,-31.88976 28.34646,-46.06299 0.006,-43.6972 0.002,-87.3944 0.002,-131.0916 -0.002,-17.7273 -38.96875,2.82576 -38.96875,-21.28125 l 53.125,0 3.5625,3.5625 c 0,42.125 0,64.25 0,106.375 0,0.65247 0.53503,1.1875 1.1875,1.1875 l 11.8125,0 c 0.65247,0 1.15625,-0.53503 1.15625,-1.1875 0,-42.125 0,-64.25 0,-106.375 l 3.5625,-3.5625 53.15625,0 c -0.74792,21.87554 -38.98942,3.55395 -39,21.28125 0.0198,43.69719 -0.0319,87.39442 0.0103,131.0916 0.0137,14.17322 28.34646,29.02889 28.34646,46.06299 0,0 3.3e-4,73.71287 3.3e-4,91.42941 0,17.71653 -10.62992,28.34645 -28.34646,28.34645 -17.71653,0 -31.88976,0 -49.6063,0 -17.71653,0 -28.34646,-10.62992 -28.34646,-28.34645 z" />
    </g>
  </g>
</svg>
