<?xml version="1.0" encoding="UTF-8" standalone="no"?>
<!-- Created with Inkscape (http://www.inkscape.org/) -->

<svg
   xmlns:dc="http://purl.org/dc/elements/1.1/"
   xmlns:cc="http://creativecommons.org/ns#"
   xmlns:rdf="http://www.w3.org/1999/02/22-rdf-syntax-ns#"
   xmlns:svg="http://www.w3.org/2000/svg"
   xmlns="http://www.w3.org/2000/svg"
   xmlns:sodipodi="http://sodipodi.sourceforge.net/DTD/sodipodi-0.dtd"
   xmlns:inkscape="http://www.inkscape.org/namespaces/inkscape"
   width="1417.3228"
   height="1062.9921"
   id="svg4116"
   version="1.1"
   inkscape:version="0.48.4 r9939"
   sodipodi:docname="highlander.svg">
  <defs
     id="defs4118" />
  <sodipodi:namedview
     id="base"
     pagecolor="#ffffff"
     bordercolor="#666666"
     borderopacity="1.0"
     inkscape:pageopacity="0.0"
     inkscape:pageshadow="2"
     inkscape:zoom="3.0470651"
     inkscape:cx="377.63493"
     inkscape:cy="832.84306"
     inkscape:document-units="mm"
     inkscape:current-layer="layer6"
     showgrid="true"
     units="mm"
     inkscape:window-width="1024"
     inkscape:window-height="749"
     inkscape:window-x="0"
     inkscape:window-y="0"
     inkscape:window-maximized="1"
     inkscape:snap-nodes="true"
     inkscape:snap-bbox="true">
    <inkscape:grid
       type="xygrid"
       id="grid2982"
       units="mm"
       empspacing="5"
       visible="true"
       enabled="true"
       snapvisiblegridlinesonly="true"
       spacingy="1mm"
       spacingx="1mm"
       dotted="true" />
  </sodipodi:namedview>
  <metadata
     id="metadata4121">
    <rdf:RDF>
      <cc:Work
         rdf:about="">
        <dc:format>image/svg+xml</dc:format>
        <dc:type
           rdf:resource="http://purl.org/dc/dcmitype/StillImage" />
        <dc:title />
      </cc:Work>
    </rdf:RDF>
  </metadata>
  <g
     inkscape:label="front support"
     inkscape:groupmode="layer"
     id="layer1"
     transform="translate(0,10.629915)"
     style="display:none"
     sodipodi:insensitive="true">
    <g
       id="g3888" />
    <path
       id="path3892"
       style="fill:none;stroke:#000000;stroke-width:0.03543307;stroke-linecap:butt;stroke-linejoin:miter;stroke-miterlimit:4;stroke-opacity:1;stroke-dasharray:none;stroke-dashoffset:0"
       d="m 563.51083,35.558019 c 0,9.784574 -7.93196,17.716534 -17.71654,17.716534 -9.78457,0 -17.71653,-7.93196 -17.71653,-17.716534 0,-9.784574 7.93196,-17.716537 17.71653,-17.716537 9.78458,0 17.71654,7.931963 17.71654,17.716537 z m 216.20423,0.0625 c 0,9.784574 -7.93196,17.716534 -17.71654,17.716534 -9.78457,0 -17.71653,-7.93196 -17.71653,-17.716534 0,-9.78457 7.93196,-17.716533 17.71653,-17.716533 9.78458,0 17.71654,7.931963 17.71654,17.716533 z M 545.73179,7.1490599 c -17.71653,0 -31.88976,10.6299221 -31.88976,28.3464571 0,17.716536 14.17323,28.346456 17.64961,28.299206 3.54297,-0.0482 3.61023,3.59056 3.61023,3.59056 l 39.0406,0.0472 0,-17.78125 c 0,-1.92837 1.54038,-3.46875 3.46875,-3.46875 l 14.3125,0 c 1.92837,0 3.46875,1.54038 3.46875,3.46875 l 0,17.78125 19.5,0 0,-17.71875 c 0,-1.92837 1.54038,-3.46875 3.46875,-3.46875 l 71,0 c 1.92837,0 3.46875,1.54038 3.46875,3.46875 l 0,17.71875 19.5625,0 0,-17.71875 c 0,-1.92837 1.54038,-3.46875 3.46875,-3.46875 l 14.3125,0 c 1.92837,0 3.46875,1.54038 3.46875,3.46875 l 0,17.71875 38.86098,-0.0472 c 0,0 -0.0499,-3.63714 3.49311,-3.59056 3.5935,0.0473 17.76673,-10.58267 17.76673,-28.299206 0,-17.716535 -14.17323,-28.3464571 -31.88977,-28.3464571 -31.88976,0 -38.91806,17.7701171 -60.1779,17.7701171 l -95.66929,0 c -21.25984,0 -28.40477,-17.7701171 -60.29454,-17.7701171 z"
       inkscape:connector-curvature="0" />
  </g>
  <g
     inkscape:groupmode="layer"
     id="layer3"
     inkscape:label="back support"
     style="display:none"
     sodipodi:insensitive="true">
    <path
       id="path3973"
       style="fill:none;stroke:#000000;stroke-width:0.03543307;stroke-linecap:butt;stroke-linejoin:miter;stroke-miterlimit:4;stroke-opacity:1;stroke-dashoffset:0"
       d="m 871.77854,138.2515 c 0,3.92204 -4.75918,7.10148 -10.62992,7.10148 -5.87074,0 -10.62992,-3.17944 -10.62992,-7.10148 0,-3.92204 4.75918,-7.10148 10.62992,-7.10148 5.87074,0 10.62992,3.17944 10.62992,7.10148 z m -322.44094,0 c 0,3.92204 -4.75918,7.10148 -10.62992,7.10148 -5.87074,0 -10.62992,-3.17944 -10.62992,-7.10148 0,-3.92204 4.75918,-7.10148 10.62992,-7.10148 5.87074,0 10.62992,3.17944 10.62992,7.10148 z m 42.53358,-49.606301 c -35.50946,-0.0625 -35.50946,35.370571 -53.226,35.370571 -10.62992,0 -42.51969,14.17323 -42.51969,35.43307 63.7126,-0.0473 341.44685,0 407.48032,0 0,-21.25984 -31.88976,-35.43307 -42.51969,-35.43307 -17.71653,0 -17.71653,-35.433071 -53.07321,-35.370571 -17.71248,-0.005 -31.01897,15.038931 -41.66901,30.083481 -10.65003,15.04456 -18.6436,30.09024 -25.73022,30.09024 l -81.49606,0 c -14.17323,0 -31.88976,-60.236221 -67.24644,-60.173721 z m 233.97909,39.092471 c 0,9.78457 -7.93196,17.71653 -17.71654,17.71653 -9.78457,0 -17.71653,-7.93196 -17.71653,-17.71653 0,-9.78457 7.93196,-17.71654 17.71653,-17.71654 9.78458,0 17.71654,7.93197 17.71654,17.71654 z m -216.20423,-0.0625 c 0,9.78458 -7.93196,17.71653 -17.71654,17.71653 -9.78457,0 -17.71653,-7.93195 -17.71653,-17.71653 0,-9.78458 7.93196,-17.71654 17.71653,-17.71654 9.78458,0 17.71654,7.93196 17.71654,17.71654 z"
       inkscape:connector-curvature="0" />
  </g>
  <g
     inkscape:groupmode="layer"
     id="layer5"
     inkscape:label="akku_extension"
     style="display:none"
     sodipodi:insensitive="true">
    <path
       sodipodi:nodetypes="sssssssscsssccssssssssss"
       inkscape:connector-curvature="0"
       id="rect3024"
       d="m 513.71875,173.6875 c -17.71654,0 -17.71654,42.53125 0,42.53125 35.43307,0 70.875,53.14149 70.875,85.03125 0,31.88976 -35.44193,85.03125 -70.875,85.03125 -17.71654,0 -17.71654,42.53125 0,42.53125 l 248.03125,0 c 10.62992,0 19.09104,-22.19997 53.21063,-39.04878 34.11959,-16.84881 93.89763,-28.34646 106.29921,-28.34646 74.40949,0 201.97346,-0.0241 201.97346,-0.0241 l 3.5312,0 c 3.926,0 7.0938,-3.13652 7.0938,-7.0625 l 0,-106.3125 c 0,-3.92598 -3.1821,-6.75771 -7.0938,-7.09375 l -3.5312,0 c 0,0 -131.10727,0.0204 -201.97346,0.0204 -12.40158,0 -73.37611,-11.53212 -106.29921,-28.34645 -32.9231,-16.81433 -37.79477,-38.91087 -49.67938,-38.91087 0,0 -60.17759,-0.0655 -92.0529,-0.0655 -7.08662,0 -7.0721,10.62801 -7.0721,10.62801 0,3.92598 -3.16777,7.09375 -7.09375,7.09375 l -42.53125,0 c -3.92598,0 -7.09375,-3.16777 -7.09375,-7.09375 0,0 0.0113,-10.62801 -7.0753,-10.62801 -28.33521,0 -88.64345,0.0655 -88.64345,0.0655 z"
       style="fill:none;stroke:#000000;stroke-width:0.03543307;stroke-linecap:butt;stroke-linejoin:miter;stroke-miterlimit:4;stroke-opacity:1;stroke-dasharray:none;stroke-dashoffset:0" />
    <path
       sodipodi:type="arc"
       style="fill:none;stroke:#000000;stroke-width:0.04422869;stroke-linecap:butt;stroke-linejoin:miter;stroke-miterlimit:4;stroke-opacity:1;stroke-dasharray:none;stroke-dashoffset:0"
       id="path3032"
       sodipodi:cx="903.54333"
       sodipodi:cy="301.18103"
       sodipodi:rx="35.433071"
       sodipodi:ry="35.433071"
       d="m 938.97641,301.18103 a 35.433071,35.433071 0 1 1 -70.86615,0 35.433071,35.433071 0 1 1 70.86615,0 z"
       transform="matrix(0.80113317,0,0,0.80113317,172.4955,59.792276)" />
    <path
       sodipodi:type="arc"
       style="fill:none;stroke:#000000;stroke-width:0.03543307;stroke-linecap:butt;stroke-linejoin:miter;stroke-miterlimit:4;stroke-opacity:1;stroke-dasharray:none;stroke-dashoffset:0"
       id="path3034"
       sodipodi:cx="1009.8425"
       sodipodi:cy="301.18103"
       sodipodi:rx="35.433071"
       sodipodi:ry="35.433071"
       d="m 1045.2756,301.18103 a 35.433071,35.433071 0 1 1 -70.86614,0 35.433071,35.433071 0 1 1 70.86614,0 z"
       transform="translate(-17.841536,2.3064536e-5)" />
    <path
       sodipodi:type="arc"
       style="fill:none;stroke:#000000;stroke-width:0.03543307;stroke-linecap:butt;stroke-linejoin:miter;stroke-miterlimit:4;stroke-opacity:1;stroke-dasharray:none;stroke-dashoffset:0"
       id="path3036"
       sodipodi:cx="1116.1417"
       sodipodi:cy="301.18103"
       sodipodi:rx="35.433071"
       sodipodi:ry="35.433071"
       d="m 1151.5748,301.18103 a 35.433071,35.433071 0 1 1 -70.8661,0 35.433071,35.433071 0 1 1 70.8661,0 z"
       transform="translate(-35.495562,0.0625118)" />
    <path
       sodipodi:type="arc"
       style="fill:none;stroke:#000000;stroke-width:0.03543307;stroke-linecap:butt;stroke-linejoin:miter;stroke-miterlimit:4;stroke-opacity:1;stroke-dasharray:none;stroke-dashoffset:0"
       id="path3043"
       sodipodi:cx="814.96063"
       sodipodi:cy="194.88184"
       sodipodi:rx="7.0866141"
       sodipodi:ry="7.0866141"
       d="m 822.04725,194.88184 a 7.0866141,7.0866141 0 1 1 -14.17323,0 7.0866141,7.0866141 0 1 1 14.17323,0 z"
       transform="translate(-70.928603,0.06251669)" />
    <path
       sodipodi:type="arc"
       style="fill:none;stroke:#000000;stroke-width:0.03543307;stroke-linecap:butt;stroke-linejoin:miter;stroke-miterlimit:4;stroke-opacity:1;stroke-dasharray:none;stroke-dashoffset:0"
       id="path3813"
       sodipodi:cx="602.36218"
       sodipodi:cy="194.88184"
       sodipodi:rx="7.0866141"
       sodipodi:ry="7.0866141"
       d="m 609.4488,194.88184 a 7.0866141,7.0866141 0 1 1 -14.17323,0 7.0866141,7.0866141 0 1 1 14.17323,0 z"
       transform="translate(-70.928603,0.06251669)" />
    <path
       sodipodi:type="arc"
       style="fill:none;stroke:#000000;stroke-width:0.03543307;stroke-linecap:butt;stroke-linejoin:miter;stroke-miterlimit:4;stroke-opacity:1;stroke-dasharray:none;stroke-dashoffset:0"
       id="path3817"
       sodipodi:cx="602.36218"
       sodipodi:cy="407.48026"
       sodipodi:rx="7.0866141"
       sodipodi:ry="7.0866141"
       d="m 609.4488,407.48026 a 7.0866141,7.0866141 0 1 1 -14.17323,0 7.0866141,7.0866141 0 1 1 14.17323,0 z"
       transform="translate(-70.928603,0.06251669)" />
    <path
       sodipodi:type="arc"
       style="fill:none;stroke:#000000;stroke-width:0.03543307;stroke-linecap:butt;stroke-linejoin:miter;stroke-miterlimit:4;stroke-opacity:1;stroke-dasharray:none;stroke-dashoffset:0"
       id="path3819"
       sodipodi:cx="814.96063"
       sodipodi:cy="407.48026"
       sodipodi:rx="7.0866141"
       sodipodi:ry="7.0866141"
       d="m 822.04725,407.48026 a 7.0866141,7.0866141 0 1 1 -14.17323,0 7.0866141,7.0866141 0 1 1 14.17323,0 z"
       transform="translate(-70.928603,0.06251669)" />
    <path
       transform="matrix(1.9989477,0,0,1.9989477,-1132.9952,-300.82678)"
       sodipodi:type="arc"
       style="fill:none;stroke:#000000;stroke-width:0.01772586;stroke-linecap:butt;stroke-linejoin:miter;stroke-miterlimit:4;stroke-opacity:1;stroke-dasharray:none;stroke-dashoffset:0"
       id="path3823"
       sodipodi:cx="903.54333"
       sodipodi:cy="301.18103"
       sodipodi:rx="35.433071"
       sodipodi:ry="35.433071"
       d="m 938.97641,301.18103 a 35.433071,35.433071 0 1 1 -70.86615,0 35.433071,35.433071 0 1 1 70.86615,0 z" />
    <path
       transform="translate(-106.23674,0.0625118)"
       d="m 938.97641,301.18103 a 35.433071,35.433071 0 1 1 -70.86615,0 35.433071,35.433071 0 1 1 70.86615,0 z"
       sodipodi:ry="35.433071"
       sodipodi:rx="35.433071"
       sodipodi:cy="301.18103"
       sodipodi:cx="903.54333"
       id="path3951"
       style="fill:none;stroke:#000000;stroke-width:0.03543307;stroke-linecap:butt;stroke-linejoin:miter;stroke-miterlimit:4;stroke-opacity:1;stroke-dasharray:none;stroke-dashoffset:0"
       sodipodi:type="arc" />
  </g>
  <g
     inkscape:groupmode="layer"
     id="layer2"
     inkscape:label="highlander30"
     style="display:none"
     sodipodi:insensitive="true">
    <g
       id="g3880"
       transform="translate(-209.00225,-223.22836)">
      <path
         d="m 322.44094,333.0708 c 0,17.61223 -14.27753,31.88976 -31.88976,31.88976 -17.61223,0 -31.88976,-14.27753 -31.88976,-31.88976 0,-17.61223 14.27753,-31.88976 31.88976,-31.88976 17.61223,0 31.88976,14.27753 31.88976,31.88976 z M 258,383.5433 c -0.65247,0 -1.1875,0.50378 -1.1875,1.15625 l 0,8.28125 c 0,0.65247 0.53503,1.1875 1.1875,1.1875 6.10417,0 12.20833,0 18.3125,0 3.34066,0 7.08957,7.27887 7.08957,10.61953 -0.0458,10.13202 0.0488,17.21347 0.0355,27.16172 0,0.65247 0.50378,1.1875 1.15625,1.1875 l 11.8125,0 c 0.65247,0 1.15625,-0.53503 1.15625,-1.1875 0,-10.23958 0.0128,-16.92214 0.0128,-27.16172 0,-3.34066 3.74034,-10.61953 7.081,-10.61953 6.10417,0 12.20833,0 18.3125,0 0.65247,0 1.1875,-0.53503 1.1875,-1.1875 l 0,-8.28125 c 0,-0.65247 -0.53503,-1.15625 -1.1875,-1.15625 z m -20.66093,-77.2715 c 0,21.25985 0.005,41.12654 0.005,41.12654 l -0.005,50.30287 c -0.002,17.0341 28.34341,31.88976 28.34646,46.06299 0.006,43.6972 0.002,87.3944 0.002,131.0916 -0.002,17.7273 -38.96875,-2.82576 -38.96875,21.28125 l 53.125,0 3.5625,-3.5625 c 0,-42.125 0,-64.25 0,-106.375 0,-0.65247 0.53503,-1.1875 1.1875,-1.1875 l 11.8125,0 c 0.65247,0 1.15625,0.53503 1.15625,1.1875 0,42.125 0,64.25 0,106.375 l 3.5625,3.5625 53.15625,0 c -0.74792,-21.87554 -38.98942,-3.55395 -39,-21.28125 0.0198,-43.69719 -0.0319,-87.39442 0.0103,-131.0916 0.0137,-14.17322 28.34646,-29.02889 28.34646,-46.06299 0,0 3.3e-4,-73.71287 3.3e-4,-91.42941 0,-17.71653 -10.62992,-28.34645 -28.34646,-28.34645 -17.71653,0 -31.88976,0 -49.6063,0 -17.71653,0 -28.34646,10.62992 -28.34646,28.34645 z"
         style="fill:none;stroke:#000000;stroke-width:0.03543307;stroke-linecap:butt;stroke-linejoin:miter;stroke-miterlimit:4;stroke-opacity:1;stroke-dashoffset:0"
         transform="translate(0.06250222,-22.110718)"
         id="path3827"
         inkscape:connector-curvature="0" />
      <path
         inkscape:connector-curvature="0"
         id="path3878"
         style="fill:none;stroke:#000000;stroke-width:0.03543307;stroke-linecap:butt;stroke-linejoin:miter;stroke-miterlimit:4;stroke-opacity:1;stroke-dashoffset:0"
         d="m 404.05238,504.07358 c 0,-17.61223 -14.27753,-31.88976 -31.88976,-31.88976 -17.61223,0 -31.88976,14.27753 -31.88976,31.88976 0,17.61223 14.27753,31.88976 31.88976,31.88976 17.61223,0 31.88976,-14.27753 31.88976,-31.88976 z m -64.44094,-50.4725 c -0.65247,0 -1.1875,-0.50378 -1.1875,-1.15625 l 0,-8.28125 c 0,-0.65247 0.53503,-1.1875 1.1875,-1.1875 6.10417,0 12.20833,0 18.3125,0 3.34066,0 7.08957,-7.27887 7.08957,-10.61953 -0.0458,-10.13202 0.0488,-17.21347 0.0355,-27.16172 0,-0.65247 0.50378,-1.1875 1.15625,-1.1875 l 11.8125,0 c 0.65247,0 1.15625,0.53503 1.15625,1.1875 0,10.23958 0.0128,16.92214 0.0128,27.16172 0,3.34066 3.74034,10.61953 7.081,10.61953 6.10417,0 12.20833,0 18.3125,0 0.65247,0 1.1875,0.53503 1.1875,1.1875 l 0,8.28125 c 0,0.65247 -0.53503,1.15625 -1.1875,1.15625 z m -20.66093,77.2715 c 0,-21.25985 0.005,-41.12654 0.005,-41.12654 l -0.005,-50.30287 c -0.002,-17.0341 28.34341,-31.88976 28.34646,-46.06299 0.006,-43.6972 0.002,-87.3944 0.002,-131.0916 -0.002,-17.7273 -38.96875,2.82576 -38.96875,-21.28125 l 53.125,0 3.5625,3.5625 c 0,42.125 0,64.25 0,106.375 0,0.65247 0.53503,1.1875 1.1875,1.1875 l 11.8125,0 c 0.65247,0 1.15625,-0.53503 1.15625,-1.1875 0,-42.125 0,-64.25 0,-106.375 l 3.5625,-3.5625 53.15625,0 c -0.74792,21.87554 -38.98942,3.55395 -39,21.28125 0.0198,43.69719 -0.0319,87.39442 0.0103,131.0916 0.0137,14.17322 28.34646,29.02889 28.34646,46.06299 0,0 3.3e-4,73.71287 3.3e-4,91.42941 0,17.71653 -10.62992,28.34645 -28.34646,28.34645 -17.71653,0 -31.88976,0 -49.6063,0 -17.71653,0 -28.34646,-10.62992 -28.34646,-28.34645 z" />
    </g>
  </g>
  <g
     inkscape:groupmode="layer"
     id="layer4"
     inkscape:label="highlander50"
     style="display:none">
    <path
       d="m 343.70079,318.89758 c 0,-53.14961 0,-70.86614 -31.88977,-70.86614 -31.88976,0 -31.88976,17.71653 -31.88976,70.86614 0,53.1496 0,67.32283 31.88976,67.32283 31.88977,0 31.88977,-14.17323 31.88977,-67.32283 z m -64.32557,-88.52486 c -0.65247,0 -1.1875,-0.50378 -1.1875,-1.15625 l 0,-8.28125 c 0,-0.65247 0.53503,-1.1875 1.1875,-1.1875 6.10417,0 12.20833,0 18.3125,0 3.34066,0 7.08957,-7.27887 7.08957,-10.61953 -0.0458,-10.13202 0.0488,-17.21347 0.0355,-27.16172 0,-0.65247 0.50378,-1.1875 1.15625,-1.1875 l 11.8125,0 c 0.65247,0 1.15625,0.53503 1.15625,1.1875 0,10.23958 0.0128,16.92214 0.0128,27.16172 0,3.34066 3.74034,10.61953 7.081,10.61953 6.10417,0 12.20833,0 18.3125,0 0.65247,0 1.1875,0.53503 1.1875,1.1875 l 0,8.28125 c 0,0.65247 -0.53503,1.15625 -1.1875,1.15625 z m -20.66093,-14.15791 c -0.002,-17.0341 28.34341,-31.88976 28.34646,-46.06299 0.006,-43.6972 0.002,-87.394395 0.002,-131.091595 -0.002,-17.7273 -38.96875,2.82576 -38.96875,-21.28125 l 53.125,0 3.5625,3.5625 c 0,42.125 0,64.25 0,106.374995 0,0.65247 0.53503,1.1875 1.1875,1.1875 l 11.8125,0 c 0.65247,0 1.15625,-0.53503 1.15625,-1.1875 0,-42.124995 0,-64.249995 0,-106.374995 l 3.5625,-3.5625 53.15625,0 c -0.74792,21.87554 -38.98942,3.55395 -39,21.28125 0.0198,43.69719 -0.0319,87.394415 0.0103,131.091595 0.0137,14.17322 28.34646,29.02889 28.34646,46.06299 0,0 -0.0526,145.20245 -0.0526,162.91899 0,17.71653 -10.62992,28.34645 -28.34646,28.34645 -17.71653,0 -31.88976,0 -49.6063,0 -17.71653,0 -28.34645,-10.62992 -28.34645,-28.34645 0.005,-54.30641 0.0583,-108.61261 0.0529,-162.91899 z"
       style="fill:none;stroke:#000000;stroke-width:0.03543307;stroke-linecap:butt;stroke-linejoin:miter;stroke-miterlimit:4;stroke-opacity:1;stroke-dashoffset:0"
       id="path3878-9"
       inkscape:connector-curvature="0"
       sodipodi:nodetypes="ssssssssssccssssssssssccccccssssccccscsssccc" />
    <path
       sodipodi:nodetypes="ssssssssssccssssssssssccccccssssccccscsssccc"
       inkscape:connector-curvature="0"
       id="path3018"
       style="fill:none;stroke:#000000;stroke-width:0.03543307;stroke-linecap:butt;stroke-linejoin:miter;stroke-miterlimit:4;stroke-opacity:1;stroke-dashoffset:0"
       d="m 453.54331,106.36165 c 0,53.1496 0,70.86613 -31.88977,70.86613 -31.88976,0 -31.88976,-17.71653 -31.88976,-70.86613 0,-53.149605 0,-67.322835 31.88976,-67.322835 31.88977,0 31.88977,14.17323 31.88977,67.322835 z m -64.32557,88.52485 c -0.65247,0 -1.1875,0.50378 -1.1875,1.15625 l 0,8.28125 c 0,0.65247 0.53503,1.1875 1.1875,1.1875 6.10417,0 12.20833,0 18.3125,0 3.34066,0 7.08957,7.27887 7.08957,10.61953 -0.0458,10.13202 0.0488,17.21347 0.0355,27.16172 0,0.65247 0.50378,1.1875 1.15625,1.1875 l 11.8125,0 c 0.65247,0 1.15625,-0.53503 1.15625,-1.1875 0,-10.23958 0.0128,-16.92214 0.0128,-27.16172 0,-3.34066 3.74034,-10.61953 7.081,-10.61953 6.10417,0 12.20833,0 18.3125,0 0.65247,0 1.1875,-0.53503 1.1875,-1.1875 l 0,-8.28125 c 0,-0.65247 -0.53503,-1.15625 -1.1875,-1.15625 z m -20.66093,14.15791 c -0.002,17.0341 28.34341,31.88976 28.34646,46.06299 0.006,43.6972 0.002,87.3944 0.002,131.0916 -0.002,17.7273 -38.96875,-2.82576 -38.96875,21.28125 l 53.125,0 3.5625,-3.5625 c 0,-42.125 0,-64.25 0,-106.375 0,-0.65247 0.53503,-1.1875 1.1875,-1.1875 l 11.8125,0 c 0.65247,0 1.15625,0.53503 1.15625,1.1875 0,42.125 0,64.25 0,106.375 l 3.5625,3.5625 53.15625,0 c -0.74792,-21.87554 -38.98942,-3.55395 -39,-21.28125 0.0198,-43.69719 -0.0319,-87.39442 0.0103,-131.0916 0.0137,-14.17322 28.34646,-29.02889 28.34646,-46.06299 0,0 -0.0526,-145.202445 -0.0526,-162.918985 0,-17.71653 -10.62992,-28.34645 -28.34646,-28.34645 -17.71653,0 -31.88976,0 -49.6063,0 -17.71653,0 -28.34645,10.62992 -28.34645,28.34645 0.005,54.306405 0.0583,108.612605 0.0529,162.918985 z" />
  </g>
  <g
     inkscape:groupmode="layer"
     id="layer6"
     inkscape:label="verstärkung">
    <path
       id="path3018-0"
       style="fill:none;stroke:#000000;stroke-width:0.03543307;stroke-linecap:butt;stroke-linejoin:miter;stroke-miterlimit:4;stroke-opacity:1;stroke-dashoffset:0;display:inline"
       d="m 311.78125,163 c 0.009,21.25165 0.0334,42.49832 0.0313,63.75 -0.002,17.0341 28.3407,31.88927 28.34375,46.0625 6.5e-4,4.72909 -4.3e-4,9.45841 0,14.1875 l 49.59375,0 c 0.003,-4.72796 -0.005,-9.45954 0,-14.1875 0.0137,-14.17321 28.34375,-29.0284 28.34375,-46.0625 0,0 0.01,-35.61936 0,-63.75 l -22.1875,0 c -2.02992,23.28939 -8.74033,31.9375 -31,31.9375 -22.25992,0 -29.00142,-8.64748 -31.03125,-31.9375 l -22.09375,0 z m 20.68107,49.60305 c -0.65247,0 -1.1875,0.50378 -1.1875,1.15625 l 0,8.28125 c 0,0.65247 0.53503,1.1875 1.1875,1.1875 6.10417,0 12.20833,0 18.3125,0 3.34066,0 7.08957,7.27887 7.08957,10.61953 -0.0458,10.13202 0.0488,17.21347 0.0355,27.16172 0,0.65247 0.50378,1.1875 1.15625,1.1875 l 11.8125,0 c 0.65247,0 1.15625,-0.53503 1.15625,-1.1875 0,-10.23958 0.0128,-16.92214 0.0128,-27.16172 0,-3.34066 3.74034,-10.61953 7.081,-10.61953 6.10417,0 12.20833,0 18.3125,0 0.65247,0 1.1875,-0.53503 1.1875,-1.1875 l 0,-8.28125 c 0,-0.65247 -0.53503,-1.15625 -1.1875,-1.15625 z" />
  </g>
</svg>
